<?xml version="1.0" encoding="UTF-8" standalone="no"?>
<svg
   version="1.1"
   id="Слой_1"
   x="0px"
   y="0px"
   width="284px"
   height="62px"
   viewBox="0 0 284 62"
   style="enable-background:new 0 0 284 62;"
   xml:space="preserve"
   sodipodi:docname="logo.svg"
   inkscape:version="1.2.2 (732a01da63, 2022-12-09, custom)"
   xmlns:inkscape="http://www.inkscape.org/namespaces/inkscape"
   xmlns:sodipodi="http://sodipodi.sourceforge.net/DTD/sodipodi-0.dtd"
   xmlns="http://www.w3.org/2000/svg"
   xmlns:svg="http://www.w3.org/2000/svg"><defs
   id="defs18" /><sodipodi:namedview
   id="namedview16"
   pagecolor="#505050"
   bordercolor="#eeeeee"
   borderopacity="1"
   inkscape:showpageshadow="0"
   inkscape:pageopacity="0"
   inkscape:pagecheckerboard="0"
   inkscape:deskcolor="#505050"
   showgrid="false"
   inkscape:zoom="5.7112676"
   inkscape:cx="134.03329"
   inkscape:cy="31.254007"
   inkscape:window-width="2560"
   inkscape:window-height="1376"
   inkscape:window-x="2560"
   inkscape:window-y="27"
   inkscape:window-maximized="1"
   inkscape:current-layer="Слой_1" />
<style
   type="text/css"
   id="style2">
	.st0{fill:#FFFFFF;}
	.st1{fill:url(#SVGID_1_);}
</style>
    
    <path
   class="st0"
   d="m 205.77439,43.652693 c -1,0 -1.8,-0.3 -2.5,-1 -0.6,-0.7 -0.9,-1.5 -0.9,-2.5 v -4.3 c 0,-1 0.3,-1.9 0.9,-2.5 0.6,-0.7 1.4,-1 2.4,-1 1,0 1.8,0.3 2.4,0.9 0.6,0.6 1,1.4 1,2.4 v 0.1 c 0,0.1 -0.1,0.3 -0.3,0.3 h -1.3 c -0.2,0 -0.3,-0.1 -0.3,-0.3 -0.1,-0.5 -0.2,-0.9 -0.5,-1.2 -0.3,-0.3 -0.6,-0.4 -1.1,-0.4 -0.5,0 -0.9,0.1 -1.2,0.5 -0.3,0.3 -0.4,0.7 -0.4,1.2 v 4.4 c 0,0.5 0.1,1 0.4,1.2 0.3,0.3 0.7,0.5 1.2,0.5 0.5,0 0.8,-0.1 1.1,-0.5 0.3,-0.3 0.5,-0.7 0.5,-1.2 0,-0.2 0.1,-0.3 0.3,-0.3 h 1.3 c 0.2,0 0.3,0.1 0.3,0.3 -0.1,1 -0.4,1.8 -1,2.5 -0.5,0.6 -1.3,0.9 -2.3,0.9 z m 8.3,0 c -1,0 -1.8,-0.3 -2.5,-1 -0.6,-0.7 -0.9,-1.5 -0.9,-2.6 v -4.2 c 0,-1 0.3,-1.9 0.9,-2.5 0.6,-0.6 1.5,-1 2.5,-1 1,0 1.8,0.3 2.4,1 0.7,0.6 1,1.4 1,2.4 0,1 -0.3,1.8 -1,2.4 -0.6,0.6 -1.5,1 -2.5,1 h -1.5 v 1.2 c 0,0.5 0.1,0.9 0.4,1.2 0.3,0.3 0.7,0.5 1.2,0.5 0.4,0 0.8,-0.1 1.1,-0.5 0.3,-0.3 0.4,-0.7 0.5,-1.2 0,-0.2 0.1,-0.3 0.3,-0.3 h 1.3 c 0.2,0 0.3,0.1 0.3,0.3 -0.1,1 -0.4,1.8 -1,2.4 -0.7,0.5 -1.5,0.9 -2.5,0.9 z m 0,-6.3 c 0.5,0 0.9,-0.1 1.2,-0.4 0.3,-0.3 0.4,-0.7 0.4,-1.1 0,-0.5 -0.1,-1 -0.4,-1.2 -0.3,-0.3 -0.7,-0.5 -1.2,-0.5 -0.5,0 -0.9,0.1 -1.2,0.5 -0.3,0.3 -0.4,0.7 -0.4,1.2 v 1.6 z m 7.2,6.1 c -0.2,0 -0.3,-0.1 -0.3,-0.3 v -8.8 h -2.1 c -0.2,0 -0.3,-0.1 -0.3,-0.3 v -1.2 c 0,-0.2 0.1,-0.3 0.3,-0.3 h 6.2 c 0.2,0 0.3,0.1 0.3,0.3 v 1.2 c 0,0.2 -0.1,0.3 -0.3,0.3 h -2.2 v 8.8 c 0,0.2 -0.1,0.3 -0.3,0.3 z m 6.6,0 c -0.3,0 -0.6,-0.1 -0.8,-0.3 -0.2,-0.2 -0.3,-0.5 -0.3,-0.8 v -9.5 c 0,-0.2 0.1,-0.3 0.3,-0.3 h 1.3 c 0.2,0 0.3,0.1 0.3,0.3 v 3.7 h 1.5 c 1,0 1.9,0.3 2.5,1 0.7,0.6 0.9,1.4 0.9,2.4 0,1 -0.3,1.9 -0.9,2.5 -0.7,0.6 -1.5,1 -2.5,1 -0.1,0 -2.3,0 -2.3,0 z m 2.2,-1.7 c 0.5,0 0.9,-0.1 1.2,-0.5 0.3,-0.3 0.5,-0.7 0.5,-1.3 0,-0.5 -0.1,-1 -0.5,-1.3 -0.3,-0.3 -0.7,-0.5 -1.2,-0.5 h -1.5 v 3.5 h 1.5 z m -22.2,13.8 c 0.5,0.2 0.9,0.5 1.2,1 0.3,0.5 0.4,1 0.4,1.7 0,1 -0.3,1.7 -0.9,2.3 -0.6,0.6 -1.4,0.9 -2.3,0.9 h -2.6 c -0.3,0 -0.6,-0.1 -0.8,-0.3 -0.2,-0.2 -0.3,-0.5 -0.3,-0.8 v -6.7 c 0,-1 0.3,-1.8 0.9,-2.4 0.6,-0.6 1.4,-0.9 2.4,-0.9 1,0 1.8,0.3 2.3,0.8 0.6,0.5 0.9,1.3 0.9,2.2 0,0.5 -0.1,0.9 -0.3,1.3 -0.3,0.5 -0.6,0.7 -0.9,0.9 z m -3.6,-0.6 h 1.4 c 0.5,0 0.9,-0.1 1.1,-0.4 0.3,-0.3 0.4,-0.6 0.4,-1 0,-0.5 -0.1,-0.8 -0.3,-1.1 -0.3,-0.3 -0.6,-0.3 -1.1,-0.3 -0.5,0 -0.8,0.1 -1,0.4 -0.3,0.3 -0.3,0.6 -0.3,1 z m 1.7,4.8 c 0.5,0 0.9,-0.1 1.2,-0.4 0.3,-0.3 0.5,-0.7 0.5,-1.2 0,-0.5 -0.1,-0.9 -0.5,-1.2 -0.3,-0.3 -0.7,-0.4 -1.2,-0.4 h -1.6 v 3.1 h 1.6 z m 8.3,1.9 c -1,0 -1.8,-0.3 -2.5,-1 -0.6,-0.7 -1,-1.5 -1,-2.6 v -4.2 c 0,-1 0.3,-1.9 1,-2.5 0.6,-0.6 1.5,-1 2.5,-1 1,0 1.8,0.3 2.4,1 0.7,0.6 0.9,1.4 0.9,2.4 0,1 -0.3,1.8 -0.9,2.4 -0.6,0.6 -1.5,1 -2.5,1 h -1.6 v 1.2 c 0,0.5 0.1,0.9 0.4,1.2 0.3,0.3 0.7,0.5 1.2,0.5 0.4,0 0.8,-0.1 1.1,-0.5 0.3,-0.3 0.4,-0.7 0.5,-1.2 0,-0.2 0.1,-0.3 0.3,-0.3 h 1.3 c 0.2,0 0.3,0.1 0.3,0.3 -0.1,1 -0.4,1.8 -1,2.4 -0.6,0.6 -1.4,0.9 -2.4,0.9 z m 0.1,-6.3 c 0.5,0 0.9,-0.1 1.2,-0.4 0.3,-0.3 0.4,-0.7 0.4,-1.1 0,-0.5 -0.1,-1 -0.4,-1.2 -0.3,-0.3 -0.7,-0.5 -1.2,-0.5 -0.5,0 -0.9,0.1 -1.2,0.5 -0.3,0.3 -0.4,0.7 -0.4,1.2 v 1.6 z m 8.7,6.1 c -1,0 -1.9,-0.3 -2.5,-1 -0.7,-0.6 -1,-1.4 -1,-2.4 v -7.1 c 0,-0.2 0.1,-0.3 0.3,-0.3 h 1.3 c 0.2,0 0.3,0.1 0.3,0.3 v 7.2 c 0,0.5 0.1,0.9 0.5,1.2 0.3,0.3 0.7,0.4 1.2,0.4 h 1.4 v -8.9 c 0,-0.2 0.1,-0.3 0.3,-0.3 h 1.3 c 0.2,0 0.3,0.1 0.3,0.3 v 9.5 c 0,0.3 -0.1,0.6 -0.3,0.8 -0.2,0.2 -0.5,0.3 -0.8,0.3 z m -0.3,-12.2 c -0.7,0 -1.3,-0.2 -1.8,-0.6 -0.5,-0.4 -0.7,-0.9 -0.8,-1.6 0,-0.2 0.1,-0.3 0.3,-0.3 h 0.9 c 0.2,0 0.3,0.1 0.3,0.3 0.1,0.3 0.1,0.4 0.3,0.5 0.2,0.1 0.4,0.2 0.7,0.2 0.3,0 0.5,-0.1 0.7,-0.2 0.2,-0.1 0.3,-0.3 0.3,-0.5 0.1,-0.2 0.1,-0.3 0.3,-0.3 h 0.9 c 0.2,0 0.3,0.1 0.3,0.3 -0.1,0.7 -0.3,1.2 -0.8,1.6 -0.3,0.4 -0.8,0.6 -1.6,0.6 z m 11.4,1.4 c 0.3,0 0.6,0.1 0.8,0.3 0.2,0.2 0.3,0.5 0.3,0.8 v 9.4 c 0,0.2 -0.1,0.3 -0.3,0.3 h -1.3 c -0.2,0 -0.3,-0.1 -0.3,-0.3 v -8.8 h -2.9 v 8.8 c 0,0.2 -0.1,0.3 -0.3,0.3 h -1.3 c -0.2,0 -0.3,-0.1 -0.3,-0.3 v -9.4 c 0,-0.3 0.1,-0.6 0.3,-0.8 0.2,-0.2 0.5,-0.3 0.8,-0.3 z m 6.7,10.8 c -1,0 -1.8,-0.3 -2.5,-1 -0.6,-0.7 -1,-1.5 -1,-2.5 v -7.1 c 0,-0.2 0.1,-0.3 0.3,-0.3 h 1.2 c 0.2,0 0.3,0.1 0.3,0.3 v 7.1 c 0,0.5 0.1,0.9 0.4,1.2 0.3,0.3 0.7,0.5 1.2,0.5 h 1.3 v -8.8 c 0,-0.2 0.1,-0.3 0.3,-0.3 h 1.3 c 0.2,0 0.3,0.1 0.3,0.3 v 8.8 h 2.8 v -8.8 c 0,-0.2 0.1,-0.3 0.3,-0.3 h 1.2 c 0.2,0 0.3,0.1 0.3,0.3 v 9.5 c 0,0.3 -0.1,0.6 -0.3,0.8 -0.2,0.2 -0.5,0.3 -0.8,0.3 z m 13.1,0.2 c -1,0 -1.9,-0.3 -2.5,-1 -0.6,-0.7 -1,-1.5 -1,-2.5 v -4.2 c 0,-1 0.3,-1.9 1,-2.5 0.6,-0.7 1.5,-1 2.5,-1 1,0 1.9,0.3 2.5,1 0.6,0.7 1,1.5 1,2.5 v 4.2 c 0,1 -0.3,1.9 -1,2.5 -0.6,0.7 -1.5,1 -2.5,1 z m 0,-1.7 c 0.5,0 0.9,-0.1 1.2,-0.5 0.3,-0.3 0.4,-0.7 0.4,-1.2 v -4.4 c 0,-0.5 -0.1,-1 -0.4,-1.2 -0.3,-0.3 -0.7,-0.5 -1.2,-0.5 -0.5,0 -0.9,0.1 -1.2,0.5 -0.3,0.3 -0.4,0.7 -0.4,1.2 v 4.4 c 0,0.5 0.1,1 0.4,1.2 0.3,0.3 0.7,0.5 1.2,0.5 z m 11.1,-9.3 c 0.3,0 0.6,0.1 0.8,0.3 0.2,0.2 0.3,0.5 0.3,0.8 v 9.4 c 0,0.2 -0.1,0.3 -0.3,0.3 h -1.3 c -0.2,0 -0.3,-0.1 -0.3,-0.3 v -8.8 h -2.9 v 8.8 c 0,0.2 -0.1,0.3 -0.3,0.3 h -1.3 c -0.2,0 -0.3,-0.1 -0.3,-0.3 v -9.4 c 0,-0.3 0.1,-0.6 0.3,-0.8 0.2,-0.2 0.5,-0.3 0.8,-0.3 z m 6.5,11 c -1,0 -1.9,-0.3 -2.5,-1 -0.6,-0.7 -1,-1.5 -1,-2.5 v -4.2 c 0,-1 0.3,-1.9 1,-2.5 0.6,-0.7 1.5,-1 2.5,-1 1,0 1.9,0.3 2.5,1 0.6,0.7 0.9,1.5 0.9,2.5 v 4.2 c 0,1 -0.3,1.9 -0.9,2.5 -0.6,0.7 -1.4,1 -2.5,1 z m 0,-1.7 c 0.5,0 0.9,-0.1 1.2,-0.5 0.3,-0.3 0.4,-0.7 0.4,-1.2 v -4.4 c 0,-0.5 -0.1,-1 -0.4,-1.2 -0.3,-0.3 -0.7,-0.5 -1.2,-0.5 -0.5,0 -0.9,0.1 -1.2,0.5 -0.3,0.3 -0.4,0.7 -0.4,1.2 v 4.4 c 0,0.5 0.1,1 0.4,1.2 0.4,0.3 0.8,0.5 1.2,0.5 z m 10.8,-4.4 c 0.5,0.2 0.9,0.5 1.2,1 0.3,0.5 0.4,1 0.4,1.7 0,1 -0.3,1.7 -0.9,2.3 -0.6,0.6 -1.4,0.9 -2.3,0.9 h -2.6 c -0.3,0 -0.6,-0.1 -0.8,-0.3 -0.2,-0.2 -0.3,-0.5 -0.3,-0.8 v -6.7 c 0,-1 0.3,-1.8 0.9,-2.4 0.6,-0.6 1.4,-0.9 2.4,-0.9 1,0 1.8,0.3 2.3,0.8 0.6,0.5 0.9,1.3 0.9,2.2 0,0.5 -0.1,0.9 -0.3,1.3 -0.3,0.5 -0.5,0.7 -0.9,0.9 z m -3.5,-0.6 h 1.4 c 0.5,0 0.9,-0.1 1.1,-0.4 0.3,-0.3 0.4,-0.6 0.4,-1 0,-0.5 -0.1,-0.8 -0.3,-1.1 -0.3,-0.3 -0.6,-0.3 -1.1,-0.3 -0.5,0 -0.8,0.1 -1,0.4 -0.3,0.3 -0.3,0.6 -0.3,1 z m 1.6,4.8 c 0.5,0 0.9,-0.1 1.2,-0.4 0.3,-0.3 0.5,-0.7 0.5,-1.2 0,-0.5 -0.1,-0.9 -0.5,-1.2 -0.3,-0.3 -0.7,-0.4 -1.2,-0.4 h -1.6 v 3.1 h 1.6 z"
   id="path6" />
    <linearGradient
   id="SVGID_1_"
   gradientUnits="userSpaceOnUse"
   x1="0"
   y1="30.17"
   x2="43.9422"
   y2="30.17"
   gradientTransform="matrix(1 0 0 -1 0 61)">
	<stop
   offset="0"
   style="stop-color:#66C3D0"
   id="stop8" />
        <stop
   offset="1"
   style="stop-color:#B72BE6"
   id="stop10" />
</linearGradient>
    <path
   class="st1"
   d="M29.1,30.9c-7.7,0.8-13.6,7.3-13.6,15.3c0,8.4,6.7,15.2,14.9,15.4C13.5,61.4,0,47.7,0,30.8  C0,13.9,13.5,0.3,30.4,0c0.1,0,0.3,0,0.5,0c8.4,0,15.3,6.9,15.3,15.4c0,7.8-5.8,14.3-13.4,15.3C31.5,30.9,30.3,30.8,29.1,30.9z"
   id="path13" />
<path
   id="path522"
   d="m 181.51757,61.549428 h 4.2 c 0.32,0 0.52,-0.2 0.52,-0.52 v -2.28 c 0,-0.36 -0.2,-0.56 -0.52,-0.56 h -3.92 c -2.08,0 -3.48,-1.6 -3.48,-3.88 v -5.4 h 6.4 c 0.36,0 0.56,-0.2 0.56,-0.56 v -2.16 c 0,-0.36 -0.2,-0.56 -0.56,-0.56 h -6.4 v -5.08 c 0,-2.28 1.4,-3.88 3.48,-3.88 h 3.92 c 0.32,0 0.52,-0.2 0.52,-0.56 v -2.28 c 0,-0.32 -0.2,-0.52 -0.52,-0.52 h -4.2 c -4.04,0 -6.84,3.04 -6.84,7.16 v 13.92 c 0,4.12 2.8,7.16 6.84,7.16 z m -23.39992,-0.12 h 2.56 c 0.32,0 0.52,-0.2 0.52,-0.56 v -10 h 3.24 l 3.8,10.08 c 0.08,0.32 0.24,0.48 0.56,0.48 h 2.72 c 0.36,0 0.64,-0.24 0.52,-0.6 l -4.28,-10.8 c 2.08,-1.12 3.56,-3.36 3.56,-6.44 v -3.2 c 0,-4.36 -2.8,-7.4 -6.92,-7.4 -4.04,0 -6.8,3.04 -6.8,7.4 v 20.48 c 0,0.36 0.2,0.56 0.52,0.56 z m 3.08,-13.88 v -7.32 c 0,-2.32 1.32,-3.84 3.24,-3.84 1.92,0 3.24,1.52 3.24,3.84 v 3.44 c 0,2.36 -1.32,3.88 -3.4,3.88 z m -14.51996,14.28 c 4.16,0 7.04,-3.04 7.04,-7.24 v -14.32 c 0,-4.2 -2.88,-7.24 -7.04,-7.24 -4.16,0 -7.08,3.04 -7.08,7.52 v 13.76 c 0,4.48 2.92,7.52 7.08,7.52 z m 0,-3.36 c -2.04,0 -3.44,-1.52 -3.44,-4 v -14.08 c 0,-2.48 1.4,-4 3.44,-4 2.04,0 3.4,1.52 3.4,3.72 v 14.64 c 0,2.2 -1.36,3.72 -3.4,3.72 z m -8.9999,-25.04 h -12.28 c -0.32,0 -0.52,0.2 -0.52,0.52 v 2.28 c 0,0.36 0.2,0.56 0.52,0.56 h 4.36 v 24.08 c 0,0.36 0.2,0.56 0.52,0.56 h 2.52 c 0.36,0 0.56,-0.2 0.56,-0.56 v -24.08 h 4.32 c 0.36,0 0.56,-0.2 0.56,-0.56 v -2.28 c 0,-0.32 -0.2,-0.52 -0.56,-0.52 z m -21.2799,28.44 c 4.16,0 6.92,-2.6 6.92,-6.72 0,-8.16 -10.08,-10.04 -10.08,-15.76 0,-2 1.08,-3.04 3.04,-3.04 1.88,0 2.96,1.36 3.08,4.32 0,0.32 0.2,0.52 0.52,0.52 h 2.52 c 0.36,0 0.52,-0.2 0.52,-0.52 -0.16,-4.68 -2.76,-7.68 -6.68,-7.68 -3.96,0 -6.6,2.48 -6.6,6.4 0,7.68 10.04,9.56 10.04,15.76 0,2.16 -1.12,3.32 -3.24,3.32 -2.16,0 -3.32,-1.52 -3.4,-4.56 -0.04,-0.32 -0.24,-0.52 -0.56,-0.52 h -2.52 c -0.36,0 -0.56,0.2 -0.56,0.56 0.16,4.84 2.84,7.92 7,7.92 z m -22.799865,-0.32 h 4.2 c 0.32,0 0.52,-0.2 0.52,-0.52 v -2.28 c 0,-0.36 -0.2,-0.56 -0.52,-0.56 h -3.92 c -2.08,0 -3.48,-1.6 -3.48,-3.88 v -5.4 h 6.4 c 0.36,0 0.56,-0.2 0.56,-0.56 v -2.16 c 0,-0.36 -0.2,-0.56 -0.56,-0.56 h -6.4 v -5.08 c 0,-2.28 1.4,-3.88 3.48,-3.88 h 3.92 c 0.32,0 0.52,-0.2 0.52,-0.56 v -2.28 c 0,-0.32 -0.2,-0.52 -0.52,-0.52 h -4.2 c -4.04,0 -6.84,3.04 -6.84,7.16 v 13.92 c 0,4.12 2.8,7.16 6.84,7.16 z m -22.679927,-0.12 h 2.56 c 0.32,0 0.52,-0.2 0.52,-0.56 v -9.52 h 3.16 c 4.16,0 6.84,-2.8 6.84,-6.88 v -4.08 c 0,-4.36 -2.72,-7.4 -6.88,-7.4 -4.12,0 -6.72,3.04 -6.72,7.4 v 20.48 c 0,0.36 0.2,0.56 0.52,0.56 z m 3.08,-13.44 v -7.76 c 0,-2.32 1.2,-3.84 3.16,-3.84 1.96,0 3.2,1.52 3.2,3.84 v 4.32 c 0,2.16 -1.24,3.44 -3.32,3.44 z m -21.119932,13.44 h 2.56 c 0.32,0 0.52,-0.2 0.52,-0.56 v -8.88 h 6.48 v 8.88 c 0,0.36 0.24,0.56 0.56,0.56 h 2.52 c 0.36,0 0.56,-0.2 0.56,-0.56 v -20.48 c 0,-4.4 -2.76,-7.36 -6.88,-7.36 -4.12,0 -6.84,2.96 -6.84,7.36 v 20.48 c 0,0.36 0.2,0.56 0.52,0.56 z m 3.08,-12.76 v -8.44 c 0,-2.4 1.2,-3.8 3.24,-3.8 2.08,0 3.24,1.4 3.24,3.8 v 8.44 z m -6.43991,-15.24 h -2.6 c -0.32,0 -0.52,0.16 -0.56,0.48 l -3.92,23.44 -3.92,-23.44 c -0.04,-0.32 -0.28,-0.48 -0.6,-0.48 h -2.6 c -0.36,0 -0.52,0.24 -0.48,0.56 l 4.76,26.12 c 0.16,0.96 0.76,1.48 1.72,1.48 h 2.2 c 0.96,0 1.56,-0.52 1.72,-1.48 l 4.76,-26.12 c 0.08,-0.32 -0.12,-0.56 -0.48,-0.56 z"
   style="font-weight:bold;font-size:40px;font-family:Phenomena;-inkscape-font-specification:'Phenomena Bold';fill:#ffffff" /></svg>
